<?xml version="1.0" standalone="no"?>
<!DOCTYPE svg PUBLIC "-//W3C//DTD SVG 20010904//EN"
 "http://www.w3.org/TR/2001/REC-SVG-20010904/DTD/svg10.dtd">
<svg version="1.0" xmlns="http://www.w3.org/2000/svg"
 width="512.000000pt" height="512.000000pt" viewBox="0 0 512.000000 512.000000"
 preserveAspectRatio="xMidYMid meet">

<g transform="translate(0.000000,512.000000) scale(0.100000,-0.100000)"
fill="#000000" stroke="none">
<path d="M909 4906 c-14 -8 -30 -26 -37 -40 -9 -21 -234 -709 -768 -2352 -57
-176 -104 -336 -104 -355 1 -46 31 -108 71 -145 50 -46 2476 -1804 2489 -1804
13 0 2439 1758 2489 1804 40 37 70 99 71 144 0 19 -22 102 -49 185 -27 84
-222 681 -431 1327 -210 646 -388 1187 -396 1201 -26 51 -110 62 -149 19 -10
-11 -147 -417 -305 -902 l-287 -883 -943 0 -943 0 -287 884 c-181 556 -295
890 -307 902 -25 26 -81 33 -114 15z"/>
</g>
</svg>
